<svg width="59" height="31" viewBox="0 0 59 31" fill="none" xmlns="http://www.w3.org/2000/svg">
<path d="M34.4888 28.5273L34.0163 30.2247H27.3491L24.7241 27.6348H19.4918V16.4352L19.9643 14.7377H34.4888V28.5273ZM33.7364 27.7748V15.4902H30.254V24.7824H28.959V15.4902H25.4941V22.1925H24.1992V15.4902H20.7168V25.1849H25.4941L28.119 27.7748H33.7364Z" fill="#333333"/>
<path d="M39.3616 28.5273L38.8891 30.2247H33.9193V16.4352L34.3918 14.7377H39.3616V28.5273ZM38.6091 27.7748V15.4902H35.1442V27.7748H38.6091Z" fill="#333333"/>
<path d="M48.9964 19.2351L48.8214 19.69H48.9789V26.0773L48.5064 27.7748L46.319 30.2247H38.7767V25.9549L39.2492 25.0274H38.7767L38.7942 20.005L42.2241 14.7377H48.9964V19.2351ZM48.2439 18.4826V15.4902H42.6266L40.0017 19.5326V22.5775H45.2165V25.0099H40.0017V27.7748H46.459L48.2264 25.7974V20.4425H43.3791V18.4826H48.2439Z" fill="#333333"/>
<path d="M58.6043 28.5273L58.1318 30.2247H48.4021V16.4352L48.8746 14.7377H58.6043V19.2351L58.1318 20.9325H55.6819V23.3299L55.2094 24.0299H58.6043V28.5273ZM57.8518 27.7748V24.7824H53.092V22.5775H54.9294V20.4425H53.092V18.4826H57.8518V15.4902H49.6271V27.7748H57.8518Z" fill="#333333"/>
<path d="M10.2022 15.382L9.72969 17.0795H4.75985V15.487H2.97491L0 10.9197V1.69745L0.472485 0H10.2022V15.382ZM9.4672 4.72485H5.98481V10.0447H4.68985V3.41239H9.4497V0.752477H1.22496V8.99472L3.84988 13.0371H5.98481V14.6295H9.4497L9.4672 4.72485Z" fill="#333333"/>
<path d="M19.8451 13.7896L19.3726 15.487H9.62538V1.69745L10.0979 0H16.8876L19.8451 4.56736V13.7896ZM19.0926 13.0371V4.79485L16.4677 0.752477H10.8503V13.0371H14.3152V7.83975H15.6277V13.0371H19.0926ZM15.6277 5.70482H14.3152V3.1849L15.6277 5.70482Z" fill="#333333"/>
<path d="M34.2478 13.7896L33.7753 15.487H19.2508V4.28736L19.7232 2.58992H24.9556L27.5805 0H34.2478V13.7896ZM33.4953 13.0371V0.752477H27.878L25.2531 3.34239H20.4757V13.0371H23.9581V6.3348H25.2531V13.0371H28.718V3.74488H30.0129V13.0371H33.4953Z" fill="#333333"/>
<path d="M43.8804 13.7896L43.4079 15.487H33.6782V1.69745L34.1507 0H43.8804V4.49736L43.4079 6.1948H40.958V8.59223L40.4855 9.29221H43.8804V13.7896ZM43.1279 13.0371V10.0447H38.3681V7.83975H40.2055V5.70482H38.3681V3.74488H43.1279V0.752477H34.9032V13.0371H43.1279Z" fill="#333333"/>
</svg>
